<?xml version="1.0"?>
<svg xmlns="http://www.w3.org/2000/svg" viewBox="0 0 64 64" width="512px" height="512px" class=""><g><g id="Solid"><path d="M15.807,39.814c.177-.113.371-.226.587-.339A26.436,26.436,0,0,1,15,31.051V15.2a1,1,0,0,1,.87-.991,44.86,44.86,0,0,0,15.652-5.1,1,1,0,0,1,.956,0,44.872,44.872,0,0,0,15.653,5.1A1,1,0,0,1,49,15.2V31.051a26.55,26.55,0,0,1-3.79,13.633l.782.427,4.357.672A31.5,31.5,0,0,0,54,31.051V9.591A40.068,40.068,0,0,1,32.476,3.3L32,3l-.476.3A40.066,40.066,0,0,1,10,9.591v21.46a31.52,31.52,0,0,0,1.963,10.955Z" data-original="#000000" class="active-path" data-old_color="#000000" fill="#8A56AC"/><path d="M32,11.119a46.843,46.843,0,0,1-15,4.947V31.051a24.465,24.465,0,0,0,1.262,7.712A29.9,29.9,0,0,1,26.03,38,25.406,25.406,0,0,1,36.9,40.151l6.551,3.575A24.565,24.565,0,0,0,47,31.051V16.066A46.859,46.859,0,0,1,32,11.119Zm0,20.709-2.586,2.586a2,2,0,0,1-2.828,0L21,28.828l3-3,4,4,4-4,8-8,3,3Z" data-original="#000000" class="active-path" data-old_color="#000000" fill="#8A56AC"/><circle cx="14" cy="57" r="4" data-original="#000000" class="active-path" data-old_color="#000000" fill="#8A56AC"/><path d="M61.76,53.27l-.79-2.57a1.009,1.009,0,0,0-.07-.15,3.4,3.4,0,0,0-2.74-1.54L45.44,47.05a.478.478,0,0,1-.18-.06l-9.31-5.08A23.511,23.511,0,0,0,26.03,40c-6.76,0-8.49,1.08-9.23,1.55l-5.56,3.18a2.022,2.022,0,0,1-1.02.27H7.04c-2.05,0-3.5,1.39-3.97,3.76L2.06,52.8a3.12,3.12,0,0,0,.72,2.64A4.337,4.337,0,0,0,6.04,57H8a6,6,0,0,1,12,0H43a6,6,0,0,1,12,0h4.36a2.64,2.64,0,0,0,2.4-3.73ZM25.03,46.39c-3.83-.21-7.69-.5-11.1-.9l3.93-2.25c.51-.32,1.83-1.14,7.17-1.23Zm2,.11V42.02a20.559,20.559,0,0,1,7.96,1.65L41,46.95C37.44,46.89,32.35,46.77,27.03,46.5Z" data-original="#000000" class="active-path" data-old_color="#000000" fill="#8A56AC"/><circle cx="49" cy="57" r="4" data-original="#000000" class="active-path" data-old_color="#000000" fill="#8A56AC"/></g></g> </svg>
